<svg width="56" height="56" viewBox="0 0 56 56" fill="none" xmlns="http://www.w3.org/2000/svg">
<path fill-rule="evenodd" clip-rule="evenodd" d="M28 56C43.464 56 56 43.464 56 28C56 12.536 43.464 0 28 0C12.536 0 0 12.536 0 28C0 43.464 12.536 56 28 56Z" fill="#4DCB7B"/>
<path fill-rule="evenodd" clip-rule="evenodd" d="M33.0722 13.7611C37.2611 14.6667 40.1222 17.4444 40.9222 21.4833C41.8555 26.1944 41.0888 30.8944 38.8666 34.0556C37.8361 35.4126 36.6627 36.6549 35.3666 37.7611C35.2724 37.8486 35.1773 37.9352 35.0824 38.0216C34.9422 38.1492 34.8024 38.2764 34.6666 38.4056C33.0833 39.8833 31.4444 41.3333 30.1888 42.3889C29.927 42.611 29.603 42.7468 29.2611 42.7778H29.1111C28.669 42.7778 28.2451 42.6022 27.9326 42.2896C27.62 41.9771 27.4444 41.5531 27.4444 41.1111V38.75C24.2222 38.5833 20.15 37.4444 18 35.2222C17.7966 35.0086 17.6865 34.7229 17.6938 34.4281C17.7011 34.1332 17.8252 33.8533 18.0388 33.65C18.2525 33.4467 18.5382 33.3365 18.833 33.3438C19.1279 33.3511 19.4077 33.4752 19.6111 33.6889C21.4 35.55 25.4111 36.5556 28.2777 36.5556C28.6461 36.5556 28.9994 36.7019 29.2598 36.9623C29.5203 37.2228 29.6666 37.5761 29.6666 37.9444V39.9C30.7277 39 31.9611 37.8889 33.1555 36.7778L33.9 36.1056C35.0724 35.1082 36.1375 33.991 37.0777 32.7722C38.9333 30.0944 39.5666 26.0333 38.7444 21.9056C38.1333 18.7444 35.9666 16.6222 32.6333 15.9278C30.9709 15.5926 29.2791 15.4251 27.5833 15.4278C24.5277 15.4278 21.9611 15.9778 20.3611 16.9667C19.2639 17.6562 18.3869 18.6451 17.8333 19.8167C17.7719 19.9521 17.6839 20.0738 17.5745 20.1746C17.4652 20.2754 17.3367 20.3532 17.1967 20.4034C17.0568 20.4536 16.9081 20.4753 16.7597 20.467C16.6112 20.4587 16.4659 20.4207 16.3323 20.3553C16.1988 20.2898 16.0798 20.1982 15.9823 20.0859C15.8848 19.9736 15.8109 19.8429 15.7649 19.7014C15.7189 19.56 15.7017 19.4108 15.7144 19.2627C15.7271 19.1145 15.7694 18.9704 15.8388 18.8389C16.5671 17.292 17.724 15.9867 19.1722 15.0778C21.6666 13.5333 25.1166 13.2056 27.5666 13.2056C29.4157 13.2076 31.26 13.3937 33.0722 13.7611ZM22.6724 32.0431C22.6573 31.6748 22.7891 31.3155 23.0388 31.0444L25.7166 28.1222H16.0777C15.7094 28.1222 15.3561 27.9759 15.0956 27.7154C14.8352 27.4549 14.6888 27.1017 14.6888 26.7333C14.6888 26.365 14.8352 26.0117 15.0956 25.7512C15.3561 25.4908 15.7094 25.3444 16.0777 25.3444H25.7166L23.0388 22.4444C22.8569 22.1666 22.7806 21.8328 22.8236 21.5035C22.8667 21.1742 23.0263 20.8713 23.2735 20.6495C23.5208 20.4278 23.8393 20.302 24.1713 20.295C24.5033 20.2879 24.8269 20.4001 25.0833 20.6111L29.9111 25.8389C29.9259 25.8624 29.9426 25.8847 29.9611 25.9055L30.0277 25.9889C30.0391 26.0043 30.0484 26.0211 30.0555 26.0389C30.0761 26.071 30.0947 26.1044 30.1111 26.1389L30.1611 26.2278V26.2778C30.1765 26.3139 30.1895 26.351 30.2 26.3889C30.1975 26.4203 30.1975 26.4519 30.2 26.4833V26.5389C30.2026 26.5759 30.2026 26.613 30.2 26.65V26.7555V26.7833V26.8889C30.2022 26.9259 30.2022 26.963 30.2 27V27.0555C30.1975 27.087 30.1975 27.1186 30.2 27.15C30.1611 27.1833 30.1611 27.2222 30.1611 27.2611V27.3111L30.1111 27.4C30.0947 27.4345 30.0761 27.4679 30.0555 27.5C30.0484 27.5178 30.0391 27.5346 30.0277 27.55L29.9611 27.6278C29.9388 27.65 29.9111 27.6944 29.9111 27.6944L25.0833 32.9278C24.8335 33.1989 24.4863 33.3597 24.118 33.3748C23.7497 33.3899 23.3905 33.2581 23.1194 33.0083C22.8483 32.7586 22.6875 32.4114 22.6724 32.0431Z" fill="white"/>
</svg>
