<svg width="56" height="56" viewBox="0 0 56 56" fill="none" xmlns="http://www.w3.org/2000/svg">
<path fill-rule="evenodd" clip-rule="evenodd" d="M28 56C43.464 56 56 43.464 56 28C56 12.536 43.464 0 28 0C12.536 0 0 12.536 0 28C0 43.464 12.536 56 28 56Z" fill="#517BF2"/>
<path fill-rule="evenodd" clip-rule="evenodd" d="M32.35 35.6667L32.6 35.4389V35.4278C32.705 35.318 32.8315 35.231 32.9715 35.172C33.1116 35.113 33.2622 35.0834 33.4141 35.085C33.5661 35.0865 33.7161 35.1193 33.8549 35.1811C33.9937 35.2429 34.1183 35.3326 34.2211 35.4445C34.3238 35.5564 34.4026 35.6882 34.4524 35.8317C34.5022 35.9753 34.5221 36.1275 34.5107 36.279C34.4994 36.4305 34.4571 36.5781 34.3864 36.7126C34.3158 36.8472 34.2183 36.9658 34.1 37.0611L33.85 37.2944L33.1833 37.9056C31.6778 39.3111 30.1166 40.6667 28.9278 41.6833C28.6698 41.9038 28.3492 42.0379 28.0111 42.0667H27.8666C27.4304 42.0579 27.015 41.8785 26.7096 41.5669C26.4042 41.2553 26.2332 40.8363 26.2333 40.4V38.2111C23.1778 38.0722 19.3278 37.0056 17.2889 34.8778C14.7 32.1833 14.0611 28.4333 13.9833 25.7611C13.8611 21.1111 15.4333 17.5278 18.4278 15.6722C20.8055 14.2 24.0889 13.8889 26.4278 13.8889C28.185 13.8869 29.9381 14.06 31.6611 14.4056C32.5069 14.581 33.3292 14.8551 34.1111 15.2222C34.2446 15.2864 34.3642 15.3763 34.4629 15.4867C34.5617 15.5971 34.6378 15.7259 34.6868 15.8657C34.7358 16.0055 34.7568 16.1536 34.7486 16.3015C34.7403 16.4494 34.7031 16.5943 34.6389 16.7278C34.5747 16.8613 34.4848 16.9808 34.3744 17.0796C34.264 17.1784 34.1352 17.2545 33.9954 17.3035C33.8556 17.3525 33.7075 17.3735 33.5596 17.3653C33.4117 17.357 33.2668 17.3198 33.1333 17.2556C32.5106 16.9656 31.8562 16.7493 31.1833 16.6111C29.6106 16.294 28.0099 16.1358 26.4055 16.1389C23.5111 16.1389 21.0833 16.6556 19.5722 17.5889C16.4833 19.5056 16.1278 23.4444 16.2 25.7222C16.2722 28 16.7944 31.1833 18.8944 33.3667C20.5778 35.1222 24.3666 36.0722 27.0778 36.0722C27.4422 36.0722 27.7918 36.2166 28.05 36.4738C28.3083 36.731 28.4541 37.08 28.4555 37.4444V39.1722C29.45 38.3167 30.5611 37.3167 31.6722 36.2944L32.35 35.6667ZM41.8612 26.7889C41.8448 26.8234 41.8262 26.8568 41.8056 26.8889L41.7556 26.9111C41.7334 26.9445 41.6889 26.9945 41.6889 26.9945C41.6705 27.0153 41.6538 27.0376 41.6389 27.0611L37.0556 32.0278C36.8019 32.2816 36.4598 32.4273 36.101 32.4345C35.7422 32.4416 35.3946 32.3096 35.131 32.0661C34.8674 31.8226 34.7082 31.4865 34.6869 31.1283C34.6656 30.7701 34.7838 30.4175 35.0167 30.1445L37.4445 27.5111H28.4778C28.1095 27.5111 27.7562 27.3648 27.4957 27.1043C27.2353 26.8439 27.0889 26.4906 27.0889 26.1222C27.0889 25.7539 27.2353 25.4006 27.4957 25.1402C27.7562 24.8797 28.1095 24.7334 28.4778 24.7334H37.4445L35.0389 22.1111C34.9149 21.9773 34.8185 21.8203 34.7551 21.6491C34.6918 21.478 34.6627 21.296 34.6697 21.1137C34.6767 20.9313 34.7195 20.7521 34.7957 20.5863C34.8719 20.4205 34.9801 20.2713 35.1139 20.1472C35.2478 20.0232 35.4048 19.9268 35.576 19.8634C35.7471 19.8001 35.9291 19.771 36.1114 19.778C36.2938 19.785 36.473 19.8278 36.6388 19.904C36.8046 19.9802 36.9538 20.0884 37.0778 20.2222L41.6612 25.1556L41.7112 25.2222L41.8056 25.3278C41.8169 25.3432 41.8263 25.36 41.8334 25.3778C41.854 25.4099 41.8726 25.4433 41.8889 25.4778L41.9112 25.6111V25.6667C41.9266 25.7028 41.9396 25.7399 41.95 25.7778C41.9483 25.8093 41.9483 25.8408 41.95 25.8722C41.9479 25.8907 41.9479 25.9093 41.95 25.9278V26.0389V26.1445C41.9522 26.1536 41.9522 26.1631 41.95 26.1722V26.2722V26.3889C41.9469 26.4073 41.9469 26.4261 41.95 26.4445C41.9469 26.4759 41.9469 26.5075 41.95 26.5389C41.9395 26.575 41.9266 26.6102 41.9112 26.6445V26.7L41.8612 26.7889Z" fill="white"/>
</svg>
