<svg width="32" height="32" viewBox="0 0 32 32" fill="none" xmlns="http://www.w3.org/2000/svg">
<path d="M27.8711 13.0756C27.7573 12.7069 27.5425 12.3774 27.2511 12.1245C26.9597 11.8716 26.6033 11.7053 26.2222 11.6444L20.5156 10.7556L18.0044 5.55556C17.8376 5.2051 17.5751 4.90897 17.2471 4.70136C16.9192 4.49374 16.5392 4.38311 16.1511 4.38222C15.7654 4.3814 15.3871 4.48831 15.0589 4.6909C14.7306 4.89349 14.4655 5.18372 14.2933 5.52889L11.6933 10.6844L5.93333 11.4756C5.54523 11.5257 5.17914 11.6842 4.87711 11.933C4.57508 12.1819 4.34937 12.5108 4.22591 12.8822C4.10244 13.2535 4.08623 13.6521 4.17913 14.0322C4.27203 14.4124 4.47028 14.7586 4.7511 15.0311L8.85333 19.0933L7.8311 24.7778C7.76125 25.1601 7.79992 25.5544 7.94275 25.9159C8.08557 26.2774 8.32683 26.5917 8.63916 26.823C8.95149 27.0544 9.3224 27.1936 9.70983 27.2249C10.0973 27.2561 10.4857 27.1782 10.8311 27L15.9644 24.3333L21.0489 27.0667C21.3913 27.2516 21.7788 27.3364 22.1671 27.3112C22.5554 27.286 22.9288 27.152 23.2444 26.9244C23.5629 26.6994 23.8112 26.3888 23.9606 26.0286C24.11 25.6684 24.1545 25.2733 24.0889 24.8889L23.16 19.2L27.3244 15.2C27.6058 14.9329 27.8062 14.592 27.9029 14.2163C27.9996 13.8406 27.9886 13.4453 27.8711 13.0756Z" fill="#F9B42F"/>
</svg>
