<svg width="56" height="56" viewBox="0 0 56 56" fill="none" xmlns="http://www.w3.org/2000/svg">
<path fill-rule="evenodd" clip-rule="evenodd" d="M28 56C43.464 56 56 43.464 56 28C56 12.536 43.464 0 28 0C12.536 0 0 12.536 0 28C0 43.464 12.536 56 28 56Z" fill="#2CC3D5"/>
<path fill-rule="evenodd" clip-rule="evenodd" d="M25.7778 26.0833C27.0963 26.0833 28.3853 25.6923 29.4816 24.9598C30.5779 24.2272 31.4324 23.1861 31.937 21.9679C32.4416 20.7497 32.5736 19.4093 32.3164 18.1161C32.0591 16.8228 31.4242 15.635 30.4918 14.7026C29.5595 13.7703 28.3716 13.1353 27.0784 12.8781C25.7852 12.6209 24.4447 12.7529 23.2266 13.2575C22.0084 13.762 20.9672 14.6165 20.2347 15.7129C19.5021 16.8092 19.1111 18.0981 19.1111 19.4167C19.1111 21.1848 19.8135 22.8805 21.0637 24.1307C22.314 25.3809 24.0097 26.0833 25.7778 26.0833ZM25.7778 14.9722C26.6568 14.9722 27.5161 15.2329 28.247 15.7212C28.9779 16.2096 29.5475 16.9037 29.8839 17.7158C30.2203 18.528 30.3083 19.4216 30.1368 20.2837C29.9653 21.1459 29.5421 21.9378 28.9205 22.5594C28.2989 23.1809 27.507 23.6042 26.6449 23.7757C25.7827 23.9472 24.8891 23.8592 24.077 23.5228C23.2649 23.1864 22.5707 22.6167 22.0824 21.8859C21.594 21.155 21.3333 20.2957 21.3333 19.4167C21.3363 18.2398 21.8058 17.1122 22.639 16.2811C23.4722 15.45 24.601 14.9833 25.7778 14.9833V14.9722ZM36.9167 35.4333L33.9111 38.2611L32.8 37.2444C32.6927 37.1452 32.567 37.0681 32.43 37.0175C32.2929 36.9668 32.1472 36.9437 32.0012 36.9494C31.8552 36.955 31.7118 36.9894 31.5791 37.0505C31.4464 37.1116 31.327 37.1983 31.2278 37.3055C31.1285 37.4128 31.0514 37.5385 31.0008 37.6756C30.9502 37.8126 30.927 37.9583 30.9327 38.1043C30.9384 38.2503 30.9728 38.3937 31.0339 38.5265C31.095 38.6592 31.1816 38.7785 31.2889 38.8778L33.1444 40.6C33.3502 40.7898 33.62 40.895 33.9 40.8944C34.1826 40.8949 34.4548 40.7876 34.6611 40.5944L38.4444 37.05C38.6588 36.8474 38.7839 36.5679 38.7923 36.2731C38.8006 35.9782 38.6915 35.6921 38.4889 35.4778C38.2863 35.2634 38.0068 35.1383 37.712 35.1299C37.4171 35.1216 37.131 35.2307 36.9167 35.4333ZM32.5834 29.7944C33.3252 29.568 34.0967 29.4538 34.8723 29.4555C36.2507 29.4565 37.6046 29.8202 38.798 30.5101C39.9914 31.1999 40.9822 32.1916 41.6711 33.3856C42.3599 34.5796 42.7224 35.9338 42.7222 37.3122C42.722 38.6907 42.3591 40.0448 41.6699 41.2385C40.9808 42.4323 39.9896 43.4238 38.796 44.1133C37.6025 44.8028 36.2484 45.1661 34.87 45.1667C33.4916 45.1673 32.1373 44.8051 30.9431 44.1167C29.7489 43.4282 28.7569 42.4376 28.0667 41.2444H17.3834C16.8215 41.243 16.2831 41.0187 15.8863 40.6209C15.4895 40.2231 15.2667 39.6841 15.2667 39.1222V37.2722C15.2667 34.7674 16.2618 32.3652 18.0329 30.594C19.8041 28.8228 22.2063 27.8278 24.7112 27.8278H26.8389C28.918 27.8332 30.9372 28.5245 32.5834 29.7944ZM28.7475 32.3962C28.772 32.3625 28.7962 32.3293 28.8223 32.3C28.9334 32.1722 29.0445 32.05 29.1667 31.9222L29.4167 31.6667L29.7334 31.3722L30.1223 31.0667L30.2889 30.9278C29.2337 30.3475 28.0488 30.0436 26.8445 30.0444H24.7167C22.8013 30.0444 20.9643 30.8053 19.6098 32.1598C18.2554 33.5142 17.4945 35.3512 17.4945 37.2667V39.0111H27.1723C27.1223 38.7833 27.0834 38.55 27.0556 38.3167V38.1667C27.0267 37.8898 27.0118 37.6117 27.0112 37.3333C27.0109 37.0382 27.0276 36.7432 27.0612 36.45C27.0667 36.3975 27.0722 36.3684 27.0798 36.3284C27.0875 36.288 27.0972 36.2366 27.1112 36.1389C27.1389 35.9444 27.1778 35.7111 27.2056 35.5833C27.2221 35.5076 27.2405 35.4436 27.2608 35.3729C27.2748 35.3242 27.2898 35.2723 27.3056 35.2111C27.3358 35.0948 27.3726 34.9818 27.4083 34.8722C27.4187 34.8404 27.429 34.809 27.4389 34.7778C27.4731 34.671 27.5171 34.5578 27.5558 34.4581C27.5675 34.428 27.5787 34.3992 27.5889 34.3722C27.6315 34.2605 27.669 34.1793 27.7306 34.0458L27.7389 34.0278C27.8056 33.8833 27.9167 33.65 27.9501 33.5889C27.9708 33.5509 27.9936 33.5151 28.0159 33.4801C28.0295 33.4588 28.043 33.4377 28.0556 33.4167C28.2433 33.0837 28.4569 32.7661 28.6945 32.4667C28.7129 32.4437 28.7303 32.4198 28.7475 32.3962ZM31.8298 42.0608C32.7376 42.6437 33.7935 42.9542 34.8723 42.9555L34.8001 42.9944C35.6307 42.9948 36.4511 42.8117 37.2028 42.4582C37.9544 42.1046 38.6186 41.5894 39.148 40.9493C39.6774 40.3092 40.0588 39.5601 40.265 38.7555C40.4712 37.9509 40.4971 37.1106 40.3409 36.2949C40.1846 35.4791 39.8501 34.7079 39.3612 34.0364C38.8723 33.3649 38.241 32.8097 37.5126 32.4105C36.7842 32.0114 35.9766 31.778 35.1475 31.7272C34.3185 31.6764 33.4884 31.8094 32.7167 32.1167C32.6116 32.1549 32.5146 32.2014 32.4153 32.249C32.3992 32.2567 32.383 32.2645 32.3667 32.2722L32.2889 32.3055L31.9834 32.4722L31.8445 32.5555L31.6001 32.7111L31.2334 32.9833L31.1667 33.05C31.054 33.1402 30.9465 33.2367 30.8445 33.3389L30.7834 33.4C30.6723 33.5111 30.5667 33.6333 30.4612 33.7555C30.2335 34.0322 30.0326 34.3298 29.8612 34.6444C29.7834 34.7944 29.7112 34.9444 29.6445 35.1V35.1444C29.5092 35.4671 29.4051 35.802 29.3334 36.1444C29.336 36.1833 29.336 36.2223 29.3334 36.2611C29.3265 36.3022 29.3181 36.3427 29.3097 36.383C29.2909 36.4737 29.2723 36.5633 29.2723 36.6555V36.8V37.3222V37.9167V37.9667C29.3405 38.555 29.5018 39.1289 29.7501 39.6667C30.2003 40.647 30.922 41.4779 31.8298 42.0608Z" fill="white"/>
</svg>
