<svg width="56" height="56" viewBox="0 0 56 56" fill="none" xmlns="http://www.w3.org/2000/svg">
<circle cx="28" cy="28" r="28" fill="#DEE8EC"/>
<path d="M40.6709 23.1549C39.9067 19.1482 37.147 16.3474 33.103 15.4814C31.3033 15.1101 29.472 14.9264 27.6367 14.9333C25.2219 14.9333 21.8307 15.2567 19.4 16.8133C15.3242 19.4168 14.8572 24.58 14.9421 27.4192C15.027 30.2584 15.6957 34.2541 18.3333 37.0714C20.5145 39.4173 24.7815 40.5354 27.9923 40.6177V43.5336C27.9901 43.7 28.0202 43.8652 28.0807 44.0194C28.1413 44.1737 28.231 44.3139 28.3447 44.4318C28.4584 44.5498 28.5938 44.6431 28.7429 44.7062C28.8919 44.7694 29.0518 44.8012 29.2129 44.7997H29.3243C29.5756 44.7787 29.8137 44.6749 30.0037 44.5037C31.2614 43.4075 32.912 41.9112 34.5147 40.3655L35.2259 39.6914C36.5107 38.5605 37.6727 37.2887 38.6914 35.8984C40.862 32.7085 41.605 27.9399 40.6709 23.1549Z" fill="#B9CBD3"/>
</svg>
