<svg width="32" height="32" viewBox="0 0 32 32" fill="none" xmlns="http://www.w3.org/2000/svg">
<path d="M26.7111 13.4889C26.6108 13.1737 26.4246 12.8927 26.1733 12.6776C25.9221 12.4625 25.6158 12.3217 25.2889 12.2711L20 11.4533L17.6533 6.62667C17.5093 6.3285 17.2849 6.07649 17.0053 5.89902C16.7258 5.72155 16.4022 5.62569 16.0711 5.62222C15.7421 5.6224 15.4195 5.71389 15.1394 5.88652C14.8593 6.05915 14.6325 6.30615 14.4845 6.6L12.0533 11.3867L6.72001 12.1156C6.39095 12.1604 6.08103 12.2965 5.82537 12.5085C5.56971 12.7205 5.37853 12.9998 5.27351 13.3149C5.16849 13.6299 5.15382 13.9681 5.23117 14.2911C5.30851 14.6141 5.47478 14.9089 5.71112 15.1422L9.51557 18.9156L8.59112 24.1911C8.53273 24.5175 8.56678 24.8537 8.68943 25.1618C8.81207 25.4699 9.01843 25.7375 9.28519 25.9344C9.55194 26.1314 9.86846 26.2498 10.199 26.2763C10.5295 26.3028 10.8608 26.2364 11.1556 26.0844L15.92 23.6311L20.6445 26.1644C20.9039 26.3045 21.1941 26.3778 21.4889 26.3778C21.7465 26.3773 22.001 26.3209 22.2347 26.2124C22.4684 26.1039 22.6757 25.9458 22.8422 25.7493C23.0088 25.5527 23.1306 25.3223 23.1993 25.0739C23.268 24.8256 23.2819 24.5653 23.24 24.3111L22.3778 19.0178L26.2489 15.3111C26.4885 15.0809 26.6589 14.7882 26.7406 14.4661C26.8223 14.144 26.8121 13.8055 26.7111 13.4889ZM21.1467 17.7378C20.9387 17.9372 20.7822 18.1842 20.6909 18.4575C20.5995 18.7308 20.5759 19.0222 20.6222 19.3067L21.4845 24.5956L16.76 22.0622C16.505 21.9283 16.2213 21.8583 15.9333 21.8583C15.6453 21.8583 15.3617 21.9283 15.1067 22.0622L10.3422 24.5067L11.2889 19.2311C11.34 18.9475 11.3215 18.6556 11.2347 18.3808C11.148 18.1059 10.9958 17.8563 10.7911 17.6533L6.98224 13.8756L12.3156 13.1511C12.5991 13.1097 12.8684 13.0004 13.1005 12.8324C13.3327 12.6645 13.5208 12.443 13.6489 12.1867L16.0622 7.4L18.3956 12.2267C18.5209 12.4871 18.7078 12.7131 18.9401 12.885C19.1724 13.057 19.4432 13.1696 19.7289 13.2133L25.0267 14.0267L21.1467 17.7378Z" fill="#B9CBD3"/>
</svg>
